<?xml version="1.0" encoding="UTF-8"?><svg xmlns="http://www.w3.org/2000/svg" viewBox="0 0 300 300"><defs><style>.d{fill:#fff;}.e{fill:#cbcbcb;}.f{fill:#e0efd8;}.g{fill:#45484a;}</style></defs><g id="a"><rect class="d" x="0" width="300" height="300" rx="47.8" ry="47.8"/><g><path class="g" d="M262.13,.03H37.87C16.98,.03,.03,16.98,.03,37.87v224.25c0,20.89,16.95,37.84,37.84,37.84h224.25c20.89,0,37.84-16.95,37.84-37.84V37.87C299.97,16.98,283.02,.03,262.13,.03Zm31.03,262.09c0,17.15-13.88,31.04-31.03,31.04H37.87c-17.08,0-31.03-13.88-31.03-31.04V37.87c0-17.15,13.95-31.04,31.03-31.04h224.25c17.15,0,31.03,13.88,31.03,31.04v224.25Z"/><g><path class="e" d="M73.98,75.38l14.09-2.86-12.66,61.25-9.32-46.62c-1.09-5.38,2.45-10.68,7.89-11.77Z"/><path class="e" d="M145.99,243.68l-36.89,7.35c-5.38,1.09-10.69-2.45-11.77-7.83l-2.66-13.27,14.09,2.93,.75-3.27c1.09-5.24,4.08-9.73,8.51-12.59,4.42-2.93,9.73-3.95,14.91-2.86,5.17,1.09,9.66,4.08,12.59,8.51,1.09,1.63,1.84,3.4,2.38,5.24-2.25,4.76-3.06,10.21-1.91,15.79Z"/><path class="f" d="M221.47,120.09l-23.41,113.18-2.38,.48c-2.79-13.75-16.06-22.6-29.81-19.87-5.31,1.02-9.87,3.68-13.41,7.28-.34-.75-.82-1.5-1.29-2.25-3.88-5.92-9.87-10-16.88-11.43-6.94-1.5-14.02-.07-20.01,3.81-4.97,3.27-8.64,8.03-10.55,13.61l-10.48-2.18-14.43-71.87,16.54-79.76,15.45-3.13c2.72,13.75,16.13,22.66,29.81,19.87,2.52-.48,4.83-1.36,7.01-2.52,3.13,2.38,6.81,4.15,10.96,5.04,13.13,2.79,26.13-4.83,30.56-17.15l23.96,4.97,8.37,41.92Z"/><path class="e" d="M211.6,70.95l-27.5-5.72-.68,3.27c-2.31,10.62-12.86,17.42-23.48,15.18-2.38-.48-4.63-1.43-6.6-2.65,5.92-5.72,8.85-14.29,7.15-23l36.82-7.35c5.45-1.09,10.75,2.45,11.84,7.89l2.45,12.39Z"/><path class="e" d="M232.49,226.4l-27.16,5.44,19.53-94.6,15.52,77.32c1.09,5.38-2.45,10.75-7.9,11.84Z"/><g><g><path class="d" d="M228.27,87.29l-6.81,32.8-23.41,113.18-1.02,4.9c-.34,1.57-1.22,2.86-2.59,3.74-1.29,.88-2.86,1.23-4.36,.88l-34.64-7.15c.41-5.04-.61-10-3-14.5-.34-.75-.82-1.5-1.29-2.25-3.88-5.92-9.87-10-16.88-11.43-6.94-1.5-14.02-.07-20.01,3.81-4.97,3.27-8.64,8.03-10.55,13.61l-10.48-2.18-22.39-4.63c-3.13-.68-5.17-3.81-4.49-7.01l12.45-60.23,16.54-79.76,2.25-10.89c.34-1.5,1.23-2.86,2.52-3.68,1.36-.88,2.86-1.16,4.42-.88l32.87,6.87c-.61,8.92,3.4,17.42,10.21,22.8,3.13,2.38,6.81,4.15,10.96,5.04,13.13,2.79,26.13-4.83,30.56-17.15l23.96,4.97,10.68,2.25c1.5,.27,2.79,1.23,3.68,2.52,.89,1.29,1.16,2.86,.82,4.36Z"/><path class="g" d="M233.17,79.19c-1.91-2.86-4.7-4.76-8.03-5.44l-13.54-2.79-27.5-5.72-.68,3.27c-2.31,10.62-12.86,17.42-23.48,15.18-2.38-.48-4.63-1.43-6.6-2.65-6.67-4.29-10.41-12.39-8.78-20.55l.61-3.33-39.27-8.1c-6.87-1.43-13.54,2.99-14.97,9.8l-2.86,13.68-12.66,61.25-15.72,75.95c-1.43,6.87,2.93,13.61,9.8,15.04l25.18,5.17,14.09,2.93,.75-3.27c1.09-5.24,4.08-9.73,8.51-12.59,4.42-2.93,9.73-3.95,14.91-2.86,5.17,1.09,9.66,4.08,12.59,8.51,1.09,1.63,1.84,3.4,2.38,5.24,.95,3.13,1.09,6.4,.41,9.73l-.68,3.33,41.11,8.51c.82,.2,1.7,.27,2.52,.27,5.85,0,11.16-4.15,12.45-10.14l1.63-7.76,19.53-94.6,10.07-48.53c.68-3.33,.07-6.74-1.77-9.53Zm-4.9,8.1l-6.81,32.8-23.41,113.18-1.02,4.9c-.34,1.57-1.22,2.86-2.59,3.74-1.29,.88-2.86,1.23-4.36,.88l-34.64-7.15c.41-5.04-.61-10-3-14.5-.34-.75-.82-1.5-1.29-2.25-3.88-5.92-9.87-10-16.88-11.43-6.94-1.5-14.02-.07-20.01,3.81-4.97,3.27-8.64,8.03-10.55,13.61l-10.48-2.18-22.39-4.63c-3.13-.68-5.17-3.81-4.49-7.01l12.45-60.23,16.54-79.76,2.25-10.89c.34-1.5,1.23-2.86,2.52-3.68,1.36-.88,2.86-1.16,4.42-.88l32.87,6.87c-.61,8.92,3.4,17.42,10.21,22.8,3.13,2.38,6.81,4.15,10.96,5.04,13.13,2.79,26.13-4.83,30.56-17.15l23.96,4.97,10.68,2.25c1.5,.27,2.79,1.23,3.68,2.52,.89,1.29,1.16,2.86,.82,4.36Z"/></g><g><path class="g" d="M105.35,100.76c-.23,0-.47-.02-.7-.07l-10-2.07c-1.84-.38-3.02-2.18-2.64-4.02,.39-1.85,2.21-3.04,4.02-2.64l10,2.07c1.84,.38,3.02,2.18,2.64,4.02-.33,1.61-1.75,2.71-3.32,2.71Z"/><path class="g" d="M193.55,119.04c-.23,0-.47-.02-.7-.07l-17.64-3.66c-1.84-.38-3.02-2.18-2.64-4.02,.38-1.84,2.21-3.06,4.02-2.64l17.64,3.66c1.84,.38,3.02,2.18,2.64,4.02-.33,1.61-1.75,2.71-3.32,2.71Zm-29.4-6.09c-.23,0-.47-.02-.7-.07l-17.64-3.66c-1.84-.38-3.02-2.18-2.64-4.02,.39-1.85,2.21-3.05,4.02-2.64l17.64,3.66c1.84,.38,3.02,2.18,2.64,4.02-.33,1.61-1.75,2.71-3.32,2.71Zm-29.4-6.1c-.23,0-.47-.02-.7-.07l-17.64-3.66c-1.84-.38-3.02-2.18-2.64-4.02,.38-1.85,2.2-3.05,4.02-2.64l17.64,3.66c1.84,.38,3.02,2.18,2.64,4.02-.33,1.61-1.75,2.71-3.32,2.71Z"/><path class="g" d="M215.31,123.56c-.23,0-.47-.02-.7-.07l-10-2.07c-1.84-.38-3.02-2.18-2.64-4.02,.38-1.84,2.22-3.06,4.02-2.64l10,2.07c1.84,.38,3.02,2.18,2.64,4.02-.33,1.61-1.75,2.71-3.32,2.71Z"/></g></g></g></g></g><g id="b"/><g id="c"/></svg>