<?xml version="1.0" encoding="UTF-8"?><svg id="Warstwa_1" xmlns="http://www.w3.org/2000/svg" viewBox="0 0 299.56 299.56"><defs><style>.cls-1{fill:#cbcbcb;}.cls-2{fill:#fff;}.cls-2,.cls-3{stroke:#45484a;stroke-miterlimit:10;stroke-width:8px;}.cls-3{fill:none;}</style></defs><rect class="cls-3" x="4" y="4" width="291.56" height="291.56" rx="29.78" ry="29.78"/><g><path class="cls-1" d="m201.56,156.35h-120.07l-11.35,15.99-11.59-15.99c-5.24,0-9.52-5.77-9.52-12.82v-73.85c0-7.05,4.29-12.82,9.52-12.82h143.02c5.24,0,9.52,5.77,9.52,12.82v73.85c0,7.05-4.29,12.82-9.52,12.82Z"/><path class="cls-2" d="m101.42,226.71h110.21s18.26,21.28,18.26,21.28l11.33-21.28c5.12,0,9.31-5.77,9.31-12.82v-73.85c0-7.05-4.19-12.82-9.31-12.82H101.42c-5.12,0-9.31,5.77-9.31,12.82v73.85c0,7.05,4.19,12.82,9.31,12.82Z"/></g></svg>