<?xml version="1.0" encoding="UTF-8"?><svg id="Warstwa_1" xmlns="http://www.w3.org/2000/svg" viewBox="0 0 300 299.93"><defs><style>.cls-1{fill:#45484a;}</style></defs><path class="cls-1" d="M262.13,0H37.87C16.98,0,.03,16.95,.03,37.84v224.25c0,20.89,16.95,37.84,37.84,37.84h224.25c20.89,0,37.84-16.95,37.84-37.84V37.84c0-20.89-16.95-37.84-37.84-37.84ZM63.8,104.67c0-1.77,1.09-3.2,2.52-3.2h115.09c1.36,0,2.52-1.5,2.52-3.27v-26c0-2.72,2.38-4.22,4.08-2.59l45.26,45.4c1.29,1.29,1.29,3.81,0,5.1l-45.26,45.4c-1.7,1.63-4.08,.14-4.08-2.52v-26.07c0-1.77-1.16-3.2-2.52-3.2H66.32c-1.43,0-2.52-1.43-2.52-3.27v-25.79Zm170.49,106.85c0,1.77-1.16,3.2-2.52,3.2H116.62c-1.36,0-2.52,1.43-2.52,3.27v26c0,2.72-2.38,4.22-4.02,2.52l-45.33-45.33c-1.29-1.29-1.29-3.81,0-5.1l45.33-45.4c1.63-1.7,4.02-.14,4.02,2.52v26c0,1.84,1.16,3.27,2.52,3.27h115.16c1.36,0,2.52,1.43,2.52,3.27v25.79Z"/></svg>