<?xml version="1.0" encoding="UTF-8"?><svg xmlns="http://www.w3.org/2000/svg" viewBox="0 0 300 300"><defs><style>.d{fill:#fff;}.e{fill:#45484a;}</style></defs><g id="a"><rect class="d" x="0" y="0" width="300" height="300" rx="47.8" ry="47.8"/><g><path class="e" d="M262.13,.03H37.87C16.98,.03,.03,16.98,.03,37.87v224.25c0,20.89,16.95,37.84,37.84,37.84h224.25c20.89,0,37.84-16.95,37.84-37.84V37.87C299.97,16.98,283.02,.03,262.13,.03Zm31.03,262.09c0,17.15-13.88,31.04-31.03,31.04H37.87c-17.08,0-31.03-13.88-31.03-31.04V37.87c0-17.15,13.95-31.04,31.03-31.04h224.25c17.15,0,31.03,13.88,31.03,31.04v224.25Z"/><g><path class="e" d="M236.66,104.53l-45.33-45.4c-1.63-1.63-3.95-2.11-5.99-1.29-2.31,1.02-3.88,3.47-3.88,6.26v25.86H67.27c-3.33,0-5.92,2.93-5.92,6.6v25.79c0,3.74,2.59,6.67,5.92,6.67h114.2v25.86c0,2.79,1.57,5.24,3.88,6.19,.68,.27,1.36,.41,2.04,.41,1.43,0,2.86-.54,3.95-1.63l45.33-45.39c2.66-2.65,2.66-7.28,0-9.94Zm-48.39,48.73v-24.43c0-3.67-2.59-6.6-5.92-6.6H68.15l.07-25.45h114.13c3.33,0,5.92-2.93,5.92-6.67l.07-24.36,43.49,43.9-43.56,43.62Z"/><path class="e" d="M232.73,170.95H118.52v-25.86c0-2.79-1.57-5.24-3.88-6.19-2.04-.89-4.36-.41-5.99,1.22l-45.33,45.39c-1.22,1.29-1.97,3.06-1.97,4.97s.75,3.74,1.97,4.97l45.33,45.4c1.09,1.09,2.52,1.7,3.95,1.7,.68,0,1.36-.14,2.04-.41,2.31-1.02,3.88-3.47,3.88-6.26v-25.86h114.2c3.27,0,5.92-3,5.92-6.6v-25.79c0-3.68-2.65-6.67-5.92-6.67Zm-.95,32.26H117.64c-3.27,0-5.92,2.99-5.92,6.67l-.07,24.36-43.49-43.9,43.56-43.63v24.37c0,3.67,2.65,6.67,5.92,6.67h114.2l-.07,25.45Z"/></g></g></g><g id="b"/><g id="c"/></svg>