<?xml version="1.0" encoding="UTF-8"?><svg xmlns="http://www.w3.org/2000/svg" viewBox="0 0 300 300"><defs><style>.d,.e{fill:#fff;}.f{fill:#45484a;}.e{stroke:#1d1d1b;stroke-miterlimit:10;}</style></defs><g id="a"><rect class="e" x="0" y="0" width="299.98" height="299.98" rx="49" ry="49"/><g><path class="f" d="M262.16,.03H37.84C17.01,.03,0,16.98,0,37.87v224.25C0,283.02,17.01,299.97,37.84,299.97h224.32c20.83,0,37.84-16.95,37.84-37.84V37.87C300,16.98,282.99,.03,262.16,.03Zm31.03,262.09c0,17.15-13.95,31.04-31.03,31.04H37.84c-17.08,0-31.03-13.88-31.03-31.04V37.87c0-17.15,13.95-31.04,31.03-31.04h224.32c17.08,0,31.03,13.88,31.03,31.04v224.25Z"/><path class="d" d="M262.16,6.84H37.84c-17.08,0-31.03,13.88-31.03,31.04v224.25c0,17.15,13.95,31.04,31.03,31.04h224.32c17.08,0,31.03-13.88,31.03-31.04V37.87c0-17.15-13.95-31.04-31.03-31.04Z"/><g><path class="f" d="M183.62,166.74h-8.23l-.82,.41c-13.34,6.67-30.49,6.6-43.83,0l-.75-.41h-13.61c-27.09,0-49.14,19.26-49.14,42.88v16.33H232.76v-16.33c0-23.62-22.05-42.88-49.14-42.88Zm41.79,51.93H74.59v-9.05c0-19.6,18.72-35.53,41.79-35.53h11.91c14.97,7.15,33.76,7.15,48.8,0h6.53c23.07,0,41.79,15.92,41.79,35.53v9.05Z"/><path class="f" d="M151.16,74.05c-24.23,0-43.9,19.74-43.9,43.97s19.67,43.9,43.9,43.9,43.9-19.67,43.9-43.9-19.67-43.97-43.9-43.97Zm0,81.06c-20.49,0-37.09-16.67-37.09-37.09s16.61-37.16,37.09-37.16,37.09,16.67,37.09,37.16-16.61,37.09-37.09,37.09Z"/></g></g></g><g id="b"/><g id="c"/></svg>