<?xml version="1.0" encoding="UTF-8"?><svg xmlns="http://www.w3.org/2000/svg" viewBox="0 0 300 299.93"><defs><style>.d{fill:#45484a;}</style></defs><g id="a"><path class="d" d="M262.09,0H37.84C17.01,0,0,16.95,0,37.84v224.25c0,20.89,17.01,37.84,37.84,37.84h224.25c20.89,0,37.91-16.95,37.91-37.84V37.84c0-20.89-17.01-37.84-37.91-37.84Zm-110.94,77.52c22.32,0,40.5,18.17,40.5,40.56s-18.17,40.49-40.5,40.49-40.56-18.1-40.56-40.49,18.17-40.56,40.56-40.56Zm77.93,144.9H70.92v-12.73c0-21.57,20.42-39.2,45.46-39.2h12.73c6.94,3.47,14.97,5.45,23.55,5.45s16.61-1.97,23.55-5.45h7.42c24.98,0,45.46,17.63,45.46,39.2v12.73Z"/></g><g id="b"/><g id="c"/></svg>